:FULLY-SPECIFIED
:FORCE-ALL-JOINTS-BE-3DOF
:DEGREES
442
root 1.53008 15.2292 -9.14949 5.38836 3.45519 -13.4894
lfemur -45.7502 15.8511 4.73219
ltibia 62.7155 0 0
lfoot -26.0414 -10.7936 0
ltoes -13.8206 0 0
rfemur -15.4318 -2.82901 8.65394
rtibia 38.8932 0 0
rfoot -14.5734 -13.3568 0
rtoes -49.761 0 0
lowerback 6.05359 1.59503 4.38305
upperback 1.02825 2.42867 0.924562
thorax -2.18963 1.18211 -1.69151
lowerneck -7.16029 0.178112 5.78614
upperneck 0.941084 -0.261571 0.066058
head 1.50745 -0.0977042 -0.974391
lclavicle 2.28608e-15 -2.68615e-14 0
lhumerus -39.7533 -28.8382 97.5694
lradius 53.9967 0 0
lwrist 8.1474 0 0
lhand -19.399 -0.888288 0
lfingers 7.12502 0 0
lthumb 6.91998 28.9769 0
rclavicle 2.28608e-15 -2.68615e-14 0
rhumerus -48.5812 -2.72303 -89.7189
rradius 66.4716 0 0
rwrist 13.0271 0 0
rhand -31.8563 -29.6029 0
rfingers 7.12502 0 0
rthumb -5.11005 -779.521 0
443
root 1.51301 15.2309 -9.12521 5.40176 4.29105 -13.6014
lfemur -46.2896 16.292 4.36367
ltibia 62.7978 0 0
lfoot -25.7997 -10.6965 0
ltoes -13.3604 0 0
rfemur -15.0099 -3.34687 8.91157
rtibia 38.7566 0 0
rfoot -14.5839 -13.705 0
rtoes -49.8685 0 0
lowerback 6.00236 1.58633 4.45787
upperback 1.00689 2.41943 0.967889
thorax -2.18278 1.17718 -1.68676
lowerneck -7.1614 0.0861327 5.69825
upperneck 0.857917 -0.375816 0.0837287
head 1.47586 -0.156615 -0.956723
lclavicle 7.59108e-16 -2.61584e-14 0
lhumerus -39.7559 -28.7217 97.6814
lradius 54.0342 0 0
lwrist 7.98004 0 0
lhand -19.7075 -1.1238 0
lfingers 7.12502 0 0
lthumb 6.62202 28.7452 0
rclavicle 7.59108e-16 -2.61584e-14 0
rhumerus -48.5728 -2.73453 -89.6379
rradius 66.3984 0 0
rwrist 12.9744 0 0
rhand -31.6629 -29.4477 0
rfingers 7.12502 0 0
rthumb -4.92326 -779.369 0
444
root 1.49137 15.2361 -9.08718 5.41469 5.56079 -13.7674
lfemur -47.1439 17.005 3.6907
ltibia 62.926 0 0
lfoot -25.3686 -10.416 0
ltoes -12.5598 0 0
rfemur -14.3476 -4.09133 9.27125
rtibia 38.4806 0 0
rfoot -14.5602 -14.213 0
rtoes -50.0344 0 0
lowerback 5.9111 1.56848 4.58959
upperback 0.976441 2.39937 1.0372
thorax -2.16278 1.16685 -1.68498
lowerneck -7.15845 -0.0498043 5.56802
upperneck 0.741133 -0.544306 0.104501
head 1.43093 -0.243341 -0.93201
lclavicle -1.80875e-15 -2.47301e-14 0
lhumerus -39.7839 -28.4996 97.8712
lradius 54.0683 0 0
lwrist 7.70598 0 0
lhand -20.2549 -1.54238 0
lfingers 7.12502 0 0
lthumb 6.09343 28.3332 0
rclavicle -1.80875e-15 -2.47301e-14 0
rhumerus -48.5577 -2.73144 -89.489
rradius 66.3031 0 0
rwrist 12.8756 0 0
rhand -31.3399 -29.1381 0
rfingers 7.12502 0 0
rthumb -4.61139 -779.065 0
445
root 1.46992 15.246 -9.0373 5.42114 7.17551 -13.9706
lfemur -48.2636 17.9555 2.69434
ltibia 63.0881 0 0
lfoot -24.7453 -9.89553 0
ltoes -11.4161 0 0
rfemur -13.4825 -4.97497 9.68659
rtibia 38.0495 0 0
rfoot -14.4631 -14.8264 0
rtoes -50.2454 0 0
lowerback 5.77715 1.5397 4.77791
upperback 0.939764 2.36573 1.12927
thorax -2.12526 1.14985 -1.68898
lowerneck -7.14951 -0.218144 5.40688
upperneck 0.606996 -0.752615 0.123362
head 1.37856 -0.350311 -0.903358
lclavicle -5.37018e-15 -2.2489e-14 0
lhumerus -39.8519 -28.1625 98.1376
lradius 54.082 0 0
lwrist 7.33382 0 0
lhand -21.0419 -2.149 0
lfingers 7.12502 0 0
lthumb 5.3334 27.7357 0
rclavicle -5.37018e-15 -2.2489e-14 0
rhumerus -48.5386 -2.70255 -89.2654
rradius 66.2011 0 0
rwrist 12.7267 0 0
rhand -30.898 -28.6582 0
rfingers 7.12502 0 0
rthumb -4.18458 -778.591 0
446
root 1.45274 15.2616 -8.9774 5.41662 9.05691 -14.1946
lfemur -49.5882 19.0939 1.3813
ltibia 63.2681 0 0
lfoot -23.945 -9.11481 0
ltoes -9.94855 0 0
rfemur -12.4557 -5.91889 10.1206
rtibia 37.468 0 0
rfoot -14.2484 -15.4946 0
rtoes -50.4855 0 0
lowerback 5.59974 1.499 5.01718
upperback 0.898527 2.31672 1.24008
thorax -2.0682 1.12538 -1.69961
lowerneck -7.13439 -0.409666 5.22462
upperneck 0.470367 -0.989408 0.137131
head 1.32428 -0.471541 -0.873204
lclavicle -9.81977e-15 -1.94545e-14 0
lhumerus -39.9704 -27.7128 98.4762
lradius 54.0635 0 0
lwrist 6.87619 0 0
lhand -22.0463 -2.93426 0
lfingers 7.12502 0 0
lthumb 4.36344 26.9618 0
rclavicle -9.81977e-15 -1.94545e-14 0
rhumerus -48.5221 -2.64284 -88.965
rradius 66.1014 0 0
rwrist 12.5291 0 0
rhand -30.3572 -28.0147 0
rfingers 7.12502 0 0
rthumb -3.66231 -777.955 0
447
root 1.4432 15.2834 -8.9092 5.39814 11.1373 -14.4234
lfemur -51.0454 20.3554 -0.216049
ltibia 63.4463 0 0
lfoot -23.0007 -8.08932 0
ltoes -8.198 0 0
rfemur -11.312 -6.85268 10.5457
rtibia 36.7619 0 0
rfoot -13.8676 -16.1714 0
rtoes -50.7363 0 0
lowerback 5.38003 1.44622 5.29643
upperback 0.85321 2.25148 1.36489
thorax -1.99194 1.09305 -1.71581
lowerneck -7.11463 -0.61748 5.02941
upperneck 0.344705 -1.24644 0.144469
head 1.27325 -0.602633 -0.843314
lclavicle -1.4994e-14 -1.57536e-14 0
lhumerus -40.146 -27.1649 98.8792
lradius 54.0067 0 0
lwrist 6.34976 0 0
lhand -23.2227 -3.87435 0
lfingers 7.12502 0 0
lthumb 3.22742 26.0349 0
rclavicle -1.4994e-14 -1.57536e-14 0
rhumerus -48.5179 -2.55344 -88.5898
rradius 66.0075 0 0
rwrist 12.2887 0 0
rhand -29.7473 -27.2371 0
rfingers 7.12502 0 0
rthumb -3.07333 -777.186 0
448
root 1.444 15.3115 -8.83435 5.36422 13.3596 -14.6413
lfemur -52.5522 21.6606 -2.03968
ltibia 63.5986 0 0
lfoot -21.9634 -6.87052 0
ltoes -6.22728 0 0
rfemur -10.0999 -7.71445 10.9438
rtibia 35.9779 0 0
rfoot -13.2667 -16.8144 0
rtoes -50.9772 0 0
lowerback 5.12103 1.382 5.59934
upperback 0.803098 2.17011 1.49816
thorax -1.89916 1.05289 -1.73452
lowerneck -7.09349 -0.837032 4.82776
upperneck 0.242064 -1.51854 0.145868
head 1.23027 -0.740775 -0.81478
lclavicle -2.06712e-14 -1.16205e-14 0
lhumerus -40.381 -26.5452 99.3357
lradius 53.9106 0 0
lwrist 5.77524 0 0
lhand -24.5025 -4.93108 0
lfingers 7.12502 0 0
lthumb 1.99152 24.9924 0
rclavicle -2.06712e-14 -1.16205e-14 0
rhumerus -48.5395 -2.44166 -88.1462
rradius 65.9165 0 0
rwrist 12.0163 0 0
rhand -29.1078 -26.3773 0
rfingers 7.12502 0 0
rthumb -2.45573 -776.335 0
449
root 1.4571 15.3454 -8.75441 5.31486 15.6772 -14.8328
lfemur -54.0137 22.9149 -4.00592
ltibia 63.6973 0 0
lfoot -20.9021 -5.54582 0
ltoes -4.12104 0 0
rfemur -8.87126 -8.45082 11.3058
rtibia 35.183 0 0
rfoot -12.3875 -17.3854 0
rtoes -51.185 0 0
lowerback 4.82768 1.30781 5.90428
upperback 0.746285 2.07366 1.63361
thorax -1.79488 1.00539 -1.75078
lowerneck -7.07601 -1.0661 4.62457
upperneck 0.173098 -1.80364 0.14366
head 1.19977 -0.884744 -0.788025
lclavicle -2.65717e-14 -7.39656e-15 0
lhumerus -40.6736 -25.8919 99.8317
lradius 53.7797 0 0
lwrist 5.17737 0 0
lhand -25.7941 -6.05187 0
lfingers 7.12502 0 0
lthumb 0.744242 23.8861 0
rclavicle -2.65717e-14 -7.39656e-15 0
rhumerus -48.6037 -2.32098 -87.6447
rradius 65.8198 0 0
rwrist 11.7277 0 0
rhand -28.4877 -25.5103 0
rfingers 7.12502 0 0
rthumb -1.8569 -775.475 0
450
root 1.48379 15.3843 -8.67086 5.25161 18.0544 -14.9828
lfemur -55.3242 24.0088 -6.00545
ltibia 63.7104 0 0
lfoot -19.9035 -4.23857 0
ltoes -1.98573 0 0
rfemur -7.68177 -9.01689 11.6326
rtibia 34.4656 0 0
rfoot -11.1666 -17.85 0
rtoes -51.3342 0 0
lowerback 4.50681 1.22594 6.18425
upperback 0.679675 1.9641 1.7642
thorax -1.68647 0.951443 -1.75766
lowerneck -7.06893 -1.30479 4.42308
upperneck 0.147055 -2.10277 0.142009
head 1.18582 -1.0349 -0.762797
lclavicle -3.23576e-14 -3.53068e-15 0
lhumerus -41.0181 -25.2551 100.35
lradius 53.6239 0 0
lwrist 4.58495 0 0
lhand -26.9827 -7.16974 0
lfingers 7.12502 0 0
lthumb -0.403561 22.7819 0
rclavicle -3.23576e-14 -3.53068e-15 0
rhumerus -48.7308 -2.21104 -87.1004
rradius 65.7029 0 0
rwrist 11.4432 0 0
rhand -27.9458 -24.7335 0
rfingers 7.12502 0 0
rthumb -1.33357 -774.705 0
451
root 1.52466 15.427 -8.58509 5.17747 20.4657 -15.0765
lfemur -56.3664 24.818 -7.90327
ltibia 63.6021 0 0
lfoot -19.0725 -3.10806 0
ltoes 0.0503575 0 0
rfemur -6.59067 -9.37631 11.9339
rtibia 33.9344 0 0
rfoot -9.53599 -18.1783 0
rtoes -51.3968 0 0
lowerback 4.16713 1.13949 6.40695
upperback 0.59898 1.84439 1.88211
thorax -1.58364 0.892383 -1.74627
lowerneck -7.08076 -1.55554 4.22489
upperneck 0.171781 -2.42001 0.14692
head 1.19211 -1.1932 -0.738175
lclavicle -3.76329e-14 -5.78971e-16 0
lhumerus -41.4045 -24.6968 100.869
lradius 53.4586 0 0
lwrist 4.03081 0 0
lhand -27.9304 -8.20335 0
lfingers 7.12502 0 0
lthumb -1.31872 21.76 0
rclavicle -3.76329e-14 -5.78971e-16 0
rhumerus -48.9445 -2.13767 -86.5324
rradius 65.5452 0 0
rwrist 11.1883 0 0
rhand -27.5505 -24.1669 0
rfingers 7.12502 0 0
rthumb -0.951761 -774.143 0
452
root 1.57959 15.4718 -8.49841 5.09697 22.8966 -15.0995
lfemur -57.0118 25.2029 -9.53875
ltibia 63.3325 0 0
lfoot -18.5317 -2.34952 0
ltoes 1.83711 0 0
rfemur -5.66079 -9.50119 12.2291
rtibia 33.7192 0 0
rfoot -7.4227 -18.344 0
rtoes -51.3424 0 0
lowerback 3.81928 1.05236 6.53472
upperback 0.49872 1.7184 1.97876
thorax -1.49847 0.829975 -1.70581
lowerneck -7.12173 -1.82314 4.02999
upperneck 0.25372 -2.76257 0.166231
head 1.22197 -1.36318 -0.712565
lclavicle -4.19436e-14 7.95139e-16 0
lhumerus -41.8188 -24.2908 101.366
lradius 53.3045 0 0
lwrist 3.55181 0 0
lhand -28.4761 -9.05693 0
lfingers 7.12502 0 0
lthumb -1.84572 20.9148 0
rclavicle -4.19436e-14 7.95139e-16 0
rhumerus -49.2721 -2.13284 -85.9644
rradius 65.3201 0 0
rwrist 10.9931 0 0
rhand -27.3797 -23.9533 0
rfingers 7.12502 0 0
rthumb -0.786809 -773.932 0
453
root 1.58841 15.4779 -8.48705 5.08508 23.2129 -15.0956
lfemur -57.051 25.2074 -9.72255
ltibia 63.2788 0 0
lfoot -18.4966 -2.29552 0
ltoes 2.04146 0 0
rfemur -5.55164 -9.48769 12.2677
rtibia 33.7173 0 0
rfoot -7.08026 -18.3568 0
rtoes -51.3286 0 0
lowerback 3.77112 1.04068 6.54128
upperback 0.4828 1.70083 1.98919
thorax -1.489 0.821237 -1.69735
lowerneck -7.13064 -1.85944 4.00577
upperneck 0.272245 -2.80954 0.170128
head 1.229 -1.38636 -0.709322
lclavicle -4.239e-14 7.70605e-16 0
lhumerus -41.8771 -24.2545 101.428
lradius 53.2829 0 0
lwrist 3.49612 0 0
lhand -28.5037 -9.15046 0
lfingers 7.12502 0 0
lthumb -1.87239 20.8222 0
rclavicle -4.239e-14 7.70605e-16 0
rhumerus -49.3298 -2.14265 -85.8877
rradius 65.2819 0 0
rwrist 10.9732 0 0
rhand -27.3866 -23.9702 0
rfingers 7.12502 0 0
rthumb -0.793482 -773.949 0
454
root 1.61609 15.4961 -8.45484 5.04724 24.0978 -15.0782
lfemur -57.112 25.1762 -10.2232
ltibia 63.1042 0 0
lfoot -18.4362 -2.1833 0
ltoes 2.59787 0 0
rfemur -5.24195 -9.39966 12.3735
rtibia 33.7123 0 0
rfoot -6.00001 -18.3997 0
rtoes -51.2963 0 0
lowerback 3.62568 1.00609 6.55164
upperback 0.433363 1.64799 2.01697
thorax -1.46202 0.794932 -1.67069
lowerneck -7.16002 -1.96188 3.94118
upperneck 0.338513 -2.94285 0.181316
head 1.25413 -1.45191 -0.701076
lclavicle -4.35328e-14 4.54569e-16 0
lhumerus -42.0529 -24.1642 101.603
lradius 53.2108 0 0
lwrist 3.34045 0 0
lhand -28.545 -9.40772 0
lfingers 7.12502 0 0
lthumb -1.9122 20.5679 0
rclavicle -4.35328e-14 4.54569e-16 0
rhumerus -49.5149 -2.18561 -85.6585
rradius 65.1633 0 0
rwrist 10.918 0 0
rhand -27.4453 -24.0712 0
rfingers 7.12502 0 0
rthumb -0.85018 -774.049 0
